<svg width="24" height="24" viewBox="0 0 24 24" fill="none" xmlns="http://www.w3.org/2000/svg">
<path d="M17.7783 16.4213L15.097 13.7997C15.2356 13.5829 15.343 13.3289 15.4192 13.0376C15.4954 12.7463 15.5335 12.4516 15.5335 12.1535C15.5335 11.1916 15.1905 10.3753 14.5046 9.70468C13.8187 9.03403 12.9838 8.69871 12 8.69871C11.6952 8.69871 11.3972 8.73258 11.1062 8.80032C10.8152 8.86806 10.552 8.97645 10.3164 9.12548L8.03002 6.86968C8.51501 6.6529 9.1351 6.46323 9.8903 6.30065C10.6455 6.13806 11.3834 6.05677 12.1039 6.05677C13.9746 6.05677 15.6998 6.55806 17.2794 7.56065C18.8591 8.56323 20.0647 9.91129 20.8961 11.6048C20.9376 11.6726 20.9654 11.7539 20.9792 11.8487C20.9931 11.9435 21 12.0452 21 12.1535C21 12.2619 20.9931 12.3669 20.9792 12.4685C20.9654 12.5702 20.9376 12.6548 20.8961 12.7226C20.5358 13.4677 20.0924 14.1519 19.5658 14.7752C19.0393 15.3984 18.4434 15.9471 17.7783 16.4213ZM18.5266 20.5671L15.4919 17.661C15.0069 17.8506 14.4596 17.9963 13.8499 18.0979C13.2402 18.1995 12.6236 18.2503 12 18.2503C10.0878 18.2503 8.33487 17.749 6.74134 16.7465C5.14781 15.7439 3.93533 14.3958 3.10393 12.7023C3.06236 12.621 3.03464 12.5363 3.02079 12.4482C3.00693 12.3602 3 12.2619 3 12.1535C3 12.0452 3.01039 11.9402 3.03118 11.8385C3.05196 11.7369 3.07621 11.6523 3.10393 11.5845C3.39492 10.9748 3.76559 10.3821 4.21594 9.80629C4.66628 9.23048 5.1963 8.68516 5.806 8.17032L3.62356 6.03645C3.49885 5.91452 3.43649 5.77226 3.43649 5.60968C3.43649 5.4471 3.49885 5.30484 3.62356 5.1829C3.74827 5.06097 3.89723 5 4.07044 5C4.24365 5 4.39261 5.06097 4.51732 5.1829L19.3995 19.7339C19.5104 19.8423 19.5658 19.9744 19.5658 20.1302C19.5658 20.286 19.5104 20.4248 19.3995 20.5468C19.2887 20.6823 19.1467 20.75 18.9734 20.75C18.8002 20.75 18.6513 20.689 18.5266 20.5671ZM12 15.6084C12.194 15.6084 12.4018 15.5915 12.6236 15.5576C12.8453 15.5237 13.0323 15.4729 13.1848 15.4052L8.67437 10.9952C8.60508 11.1577 8.55312 11.3406 8.51848 11.5439C8.48383 11.7471 8.46651 11.9503 8.46651 12.1535C8.46651 13.129 8.81293 13.9487 9.50577 14.6126C10.1986 15.2765 11.03 15.6084 12 15.6084ZM14.1824 12.9055L11.2309 10.0197C12.0901 9.70806 12.8868 9.87064 13.6212 10.5074C14.3557 11.1442 14.5427 11.9435 14.1824 12.9055Z" fill="#D2D2D2"/>
</svg>
