<svg width="16" height="14" viewBox="0 0 16 14" fill="none" xmlns="http://www.w3.org/2000/svg">
<path d="M15.9764 3.01514V4.26041H0.0235639V3.01514C-0.0279656 2.60918 0.00528669 2.19531 0.120682 1.80629C0.236078 1.41727 0.430451 1.0638 0.688416 0.773836C0.94638 0.48387 1.26085 0.265346 1.60693 0.135636C1.95302 0.0059248 2.32122 -0.0314297 2.68238 0.0264921H13.3176C13.6788 -0.0314297 14.047 0.0059248 14.3931 0.135636C14.7391 0.265346 15.0536 0.48387 15.3116 0.773836C15.5695 1.0638 15.7639 1.41727 15.8793 1.80629C15.9947 2.19531 16.028 2.60918 15.9764 3.01514ZM15.9764 5.75473V10.9849C16.028 11.3908 15.9947 11.8047 15.8793 12.1937C15.7639 12.5827 15.5695 12.9362 15.3116 13.2262C15.0536 13.5161 14.7391 13.7347 14.3931 13.8644C14.047 13.9941 13.6788 14.0314 13.3176 13.9735H2.68238C2.32122 14.0314 1.95302 13.9941 1.60693 13.8644C1.26085 13.7347 0.94638 13.5161 0.688416 13.2262C0.430451 12.9362 0.236078 12.5827 0.120682 12.1937C0.00528669 11.8047 -0.0279656 11.3908 0.0235639 10.9849V5.75473H15.9764ZM6.89216 9.98865C6.89216 9.79049 6.82213 9.60044 6.69748 9.46032C6.57282 9.3202 6.40375 9.24149 6.22746 9.24149H3.56865C3.39236 9.24149 3.22329 9.3202 3.09863 9.46032C2.97398 9.60044 2.90394 9.79049 2.90394 9.98865C2.90394 10.1868 2.97398 10.3769 3.09863 10.517C3.22329 10.6571 3.39236 10.7358 3.56865 10.7358H6.22746C6.40375 10.7358 6.57282 10.6571 6.69748 10.517C6.82213 10.3769 6.89216 10.1868 6.89216 9.98865Z" fill="#FFC143"/>
</svg>
