<svg width="16" height="16" viewBox="0 0 16 16" fill="none" xmlns="http://www.w3.org/2000/svg">
<path fill-rule="evenodd" clip-rule="evenodd" d="M16 8C16 12.4183 12.4183 16 8 16C3.58172 16 0 12.4183 0 8C0 3.58172 3.58172 0 8 0C12.4183 0 16 3.58172 16 8ZM8 3.63636C8.40167 3.63636 8.72727 3.96198 8.72727 4.36364V8.72727C8.72727 9.12895 8.40167 9.45455 8 9.45455C7.59833 9.45455 7.27273 9.12895 7.27273 8.72727V4.36364C7.27273 3.96198 7.59833 3.63636 8 3.63636ZM8 12.3636C8.40167 12.3636 8.72727 12.038 8.72727 11.6364C8.72727 11.2347 8.40167 10.9091 8 10.9091C7.59833 10.9091 7.27273 11.2347 7.27273 11.6364C7.27273 12.038 7.59833 12.3636 8 12.3636Z" fill="#FF4117"/>
</svg>
