<svg width="14" height="14" viewBox="0 0 14 14" fill="none" xmlns="http://www.w3.org/2000/svg">
<path fill-rule="evenodd" clip-rule="evenodd" d="M7 13.16C10.4021 13.16 13.16 10.4021 13.16 7C13.16 3.59794 10.4021 0.84 7 0.84C3.59794 0.84 0.84 3.59794 0.84 7C0.84 10.4021 3.59794 13.16 7 13.16ZM7 14C10.866 14 14 10.866 14 7C14 3.13402 10.866 0 7 0C3.13402 0 0 3.13402 0 7C0 10.866 3.13402 14 7 14Z" fill="#8C8C8C"/>
<path d="M7.86746 5.26155C7.86746 4.67279 7.41164 4.24072 6.70417 4.24072C6.34087 4.24072 6.0446 4.34922 5.83396 4.54463C5.7212 4.64923 5.65202 4.75078 5.60838 4.87672C5.53809 5.07938 5.37668 5.25 5.16225 5.25C4.92734 5.25 4.723 5.05068 4.76797 4.8202C4.78536 4.73101 4.81295 4.64304 4.85944 4.54463C5.15245 3.92403 5.77609 3.5 6.73742 3.5C7.93396 3.5 8.75062 4.24072 8.75062 5.21879C8.75062 5.96423 8.36603 6.49128 7.75826 6.85691C7.46245 7.03156 7.27059 7.15371 7.15194 7.29167C7.07821 7.37736 7.03277 7.46912 7.00809 7.58333C7.00144 7.61408 6.99782 7.67043 6.99613 7.73646C6.98995 7.97137 6.80538 8.16667 6.57042 8.16667C6.34047 8.16667 6.15281 7.97948 6.16103 7.7497C6.16366 7.67614 6.1671 7.61343 6.17171 7.58333C6.18746 7.48078 6.2133 7.38383 6.24947 7.29167C6.38503 6.94651 6.66568 6.66756 7.103 6.40582C7.65378 6.06871 7.86746 5.76958 7.86746 5.26155Z" fill="#8C8C8C"/>
<path d="M6.57057 10.2085C6.87921 10.2085 7.11191 9.97111 7.11191 9.66725C7.11191 9.35861 6.87921 9.12598 6.57057 9.12598C6.26671 9.12598 6.0293 9.35861 6.0293 9.66725C6.0293 9.97111 6.26671 10.2085 6.57057 10.2085Z" fill="#8C8C8C"/>
</svg>
