<svg width="24" height="20" viewBox="0 0 24 20" fill="none" xmlns="http://www.w3.org/2000/svg">
<path d="M2.651 20C1.9168 20 1.29142 19.7349 0.774853 19.2048C0.258284 18.6746 0 18.0328 0 17.2793V2.74964C0 1.98817 0.258284 1.33954 0.774853 0.803734C1.29142 0.267912 1.9168 0 2.651 0H21.3208C22.0628 0 22.6948 0.267912 23.2169 0.803734C23.739 1.33954 24 1.98817 24 2.74964V17.2793C24 18.0328 23.739 18.6746 23.2169 19.2048C22.6948 19.7349 22.0628 20 21.3208 20H2.651ZM11.9859 11.1722C12.1175 11.1722 12.2397 11.1529 12.3525 11.1143C12.4653 11.0757 12.5889 11.0174 12.7231 10.9392L20.926 5.29667C21.02 5.24843 21.1093 5.15437 21.1939 5.01447C21.2785 4.87458 21.3208 4.71524 21.3208 4.53647C21.3208 4.20134 21.1657 3.92588 20.8555 3.7101C20.5452 3.4943 20.2303 3.50217 19.9107 3.73372L11.9859 9.05933L4.08931 3.73372C3.76968 3.52147 3.45006 3.50217 3.13043 3.67583C2.81081 3.84949 2.651 4.12775 2.651 4.51059C2.651 4.68163 2.698 4.8361 2.79201 4.97401C2.88602 5.11193 2.9818 5.22012 3.07936 5.29855L11.2493 10.9392C11.3831 11.0174 11.5065 11.0757 11.6193 11.1143C11.7321 11.1529 11.8543 11.1722 11.9859 11.1722Z" fill="#FFC95D"/>
</svg>
