<svg width="26" height="26" viewBox="0 0 26 26" fill="none" xmlns="http://www.w3.org/2000/svg">
<path d="M23.5357 7.84597C24.9435 8.24181 25.4956 9.94216 24.5896 11.0897L24.5897 11.0894L24.1969 10.7801L24.5893 11.09L24.5648 11.1211L24.5645 11.1215C24.2267 11.5496 24.2739 12.1601 24.6619 12.531L24.7597 12.6122C25.8844 13.546 25.6975 15.3241 24.4042 16.0042C24.4036 16.0046 24.403 16.0049 24.4024 16.0052L24.3767 16.0189L24.3737 16.0206C23.8689 16.2853 23.6676 16.9054 23.9207 17.4164L23.9217 17.4183L23.9447 17.4654C23.9449 17.4657 23.945 17.4659 23.9451 17.4662C24.5943 18.7791 23.6974 20.3296 22.2359 20.4221L22.2201 20.4231H22.2043L23.5357 7.84597ZM23.5357 7.84597L23.4992 7.83527L23.4992 7.83524L23.4935 7.83363C22.9436 7.67971 22.6175 7.11487 22.7595 6.56213C22.7595 6.56211 22.7595 6.56209 22.7595 6.56207L22.7681 6.52859L22.7682 6.52806C23.1317 5.10766 21.9309 3.77506 20.4798 3.99186L20.4777 3.99219L20.4551 3.99566C20.4548 3.99572 20.4544 3.99577 20.454 3.99583C19.8884 4.07949 19.3603 3.69552 19.2654 3.13246C19.2653 3.13181 19.2652 3.13116 19.2651 3.13051L19.2629 3.11651L19.2629 3.1165L19.2622 3.11216C19.0202 1.66231 17.3755 0.930339 16.1371 1.72293L16.1361 1.72353L16.1239 1.73141C16.1237 1.73151 16.1236 1.73161 16.1234 1.73171C15.6474 2.03565 15.018 1.90782 14.6982 1.44768L14.6975 1.44626L14.681 1.42133C13.8729 0.195249 12.0762 0.192895 11.2642 1.41427L11.257 1.42453L11.2525 1.43094L11.2481 1.43749C10.9318 1.91702 10.2903 2.05337 9.80753 1.74413L9.80736 1.74402C8.5689 0.951424 6.92424 1.6834 6.68227 3.13324L6.68225 3.13339L6.67659 3.16733C6.67657 3.16745 6.67655 3.16757 6.67653 3.16769C6.58154 3.73282 6.05176 4.11735 5.48652 4.03305L5.44984 4.02758H5.43902C4.00527 3.83918 2.82946 5.16092 3.18963 6.56832M23.5357 7.84597L22.1871 20.4231H22.2042C21.6408 20.4659 21.2111 20.9479 21.2352 21.514L21.2352 21.5139L20.7357 21.5361M3.18963 6.56832L3.1895 6.56781L3.67402 6.44436L3.18963 6.56832ZM3.18963 6.56832L3.20195 6.61669L3.20207 6.61713C3.34366 7.17076 3.01757 7.73544 2.46821 7.88922L2.46813 7.88924L2.44432 7.89591L2.57904 8.37742M2.57904 8.37742L2.44418 7.89595C1.03531 8.29025 0.48212 9.99158 1.38683 11.1397L1.38627 11.139L1.78008 10.8309M2.57904 8.37742C1.51376 8.67548 1.09512 9.96259 1.78008 10.8309M2.57904 8.37742L2.60299 8.37071C3.41441 8.14357 3.89531 7.30978 3.68647 6.49323L1.81457 10.875L1.78008 10.8309M1.78008 10.8309L1.38752 11.1406L1.42076 11.1831L1.42208 11.1847C1.77513 11.6321 1.70707 12.2796 1.26882 12.644L1.26832 12.6444L1.24034 12.6677L1.55975 13.0524M1.55975 13.0524L1.23958 12.6684L1.23995 12.6681C0.115163 13.6024 0.302833 15.3815 1.59759 16.0608L1.59758 16.0608L1.60227 16.0632L1.64284 16.084M1.55975 13.0524C0.709057 13.7588 0.850839 15.1043 1.8299 15.618M1.55975 13.0524L1.8299 15.618M1.64284 16.084C2.14571 16.3492 2.34628 16.967 2.0939 17.4781L2.09443 17.4771L2.54168 17.7006M1.64284 16.084C1.64213 16.0836 1.64143 16.0832 1.64072 16.0828L1.87301 15.6401M1.64284 16.084L1.64538 16.0853L1.87301 15.6401M2.54168 17.7006L2.09352 17.4789L2.07718 17.5116L2.07633 17.5133C1.42646 18.8262 2.32326 20.3778 3.78561 20.4691L3.78738 20.4692L3.81809 20.471L3.84933 19.972M2.54168 17.7006C2.9153 16.9454 2.61832 16.0311 1.87301 15.6401M2.54168 17.7006L2.52444 17.7351C2.03299 18.728 2.71124 19.9011 3.81676 19.9701M3.84933 19.972L3.81996 20.4711L3.81881 20.4711C4.38896 20.5071 4.82578 20.9926 4.80114 21.5634L4.80068 21.5742V21.5849V21.6015M3.84933 19.972L3.81676 19.9701M3.84933 19.972C4.6914 20.0247 5.33708 20.7416 5.30068 21.5849M4.80068 21.6015C4.74426 23.064 6.19677 24.1115 7.56763 23.597L7.56764 23.5971L7.57319 23.5949L7.58728 23.5894M4.80068 21.6015C4.80083 21.5976 4.80099 21.5937 4.80116 21.5898L5.30068 21.6118M4.80068 21.6015V21.6118H5.30068M7.58728 23.5894C8.123 23.3901 8.7204 23.6567 8.92971 24.1896L8.93082 24.1924L8.93349 24.199L9.39892 24.0164L8.93465 24.2019L8.9341 24.2006C9.47212 25.5684 11.2338 25.9418 12.2802 24.9089L12.2826 24.9065L12.2915 24.8976L11.9405 24.5416M7.58728 23.5894C7.58644 23.5897 7.5856 23.59 7.58477 23.5904L7.4092 23.1222L7.59043 23.5882L7.58728 23.5894ZM11.9405 24.5416L12.2941 24.895L12.2926 24.8965C12.7016 24.4944 13.3575 24.4948 13.7659 24.8976M11.9405 24.5416C12.544 23.9464 13.5135 23.9464 14.117 24.5416M11.9405 24.5416L11.929 24.5531C11.1377 25.3342 9.80512 25.0514 9.39893 24.0164L14.117 24.5416M13.7659 24.8976C14.8128 25.9307 16.5752 25.5566 17.1125 24.1875L17.1137 24.1843L17.122 24.1627L16.6566 23.98M13.7659 24.8976C13.7659 24.8975 13.7658 24.8975 13.7658 24.8974L14.117 24.5416M13.7659 24.8976L14.117 24.5416M16.6566 23.98L17.1233 24.1594L17.1226 24.1612C17.3328 23.6285 17.9311 23.3626 18.467 23.5635L18.5519 23.5954H18.5607M16.6566 23.98L16.647 24.0049C16.2409 25.0399 14.9083 25.3227 14.117 24.5416M16.6566 23.98C16.9661 23.1922 17.8503 22.7983 18.6425 23.0954M18.5607 23.5954C19.9085 24.0339 21.2979 22.9917 21.2372 21.558L21.2371 21.557L21.2353 21.5145L20.7357 21.5361M18.5607 23.5954C18.5302 23.5855 18.4998 23.5748 18.4694 23.5633L18.6425 23.103L18.6454 23.0954M18.5607 23.5954H18.6425H18.6454V23.0954M20.7357 21.5361L20.7376 21.5792M20.7357 21.5361L20.7376 21.5792M20.7376 21.5792C20.7846 22.688 19.6848 23.4864 18.6454 23.0954M20.7376 21.5792L18.6425 23.0954M18.6454 23.0954H18.6425M18.6425 23.0954L14.117 24.5416M5.30068 21.6118V21.5849M5.30068 21.6118C5.25182 22.7216 6.35254 23.519 7.39196 23.1289L5.30068 21.5849M5.30068 21.5849L3.81676 19.9701M3.81676 19.9701L1.87301 15.6401M1.87301 15.6401L1.8299 15.618M1.87301 15.6401L1.8299 15.618M12.977 21.8057C8.0946 21.8057 4.13666 17.8464 4.13666 12.9614C4.13666 8.07638 8.09463 4.11711 12.976 4.11711C17.8575 4.11711 21.8164 8.07645 21.8164 12.9614C21.8164 17.8464 17.8593 21.8057 12.977 21.8057Z" fill="#999999" stroke="white"/>
<circle cx="13" cy="13" r="9.5" fill="#999999" stroke="white"/>
<path d="M10 18V8H13.1914C15.3452 8 17 8.77027 17 11.1351C17 13.4189 15.3321 14.4459 13.2439 14.4459H11.9437V18H10ZM11.9437 12.8649H13.1126C14.4522 12.8649 15.0957 12.2838 15.0957 11.1351C15.0957 9.97297 14.3865 9.58108 13.0469 9.58108H11.9437V12.8649Z" fill="#FFC95D"/>
</svg>
