<svg width="14" height="16" viewBox="0 0 14 16" fill="none" xmlns="http://www.w3.org/2000/svg">
<g clip-path="url(#clip0_224_6153)">
<path d="M8.78277 13.9678H5.22518C4.90533 13.9678 4.67131 14.2539 4.77313 14.5316C5.08595 15.385 5.96643 15.9999 7.00397 15.9999C8.04152 15.9999 8.922 15.385 9.23482 14.5316C9.33655 14.254 9.10252 13.9678 8.78277 13.9678Z" fill="#BEBEBE"/>
<path d="M8.22347 2.03213H5.78618C5.5671 2.03213 5.40678 1.74597 5.47644 1.46834C5.69078 0.614859 6.29402 0 7.00478 0C7.71554 0 8.31878 0.614859 8.53312 1.46834C8.60279 1.74589 8.44256 2.03213 8.22338 2.03213H8.22347Z" fill="#BEBEBE"/>
<path d="M13.9999 12.5361V12.5357C14.0001 12.279 13.8839 12.0344 13.6797 11.8679C13.1511 11.437 12.1636 10.1989 12.2557 6.9972C12.3302 4.40675 11.3664 2.88814 10.2106 1.99774C8.37093 0.580468 5.65798 0.579423 3.81585 1.99525C2.65866 2.88468 1.69209 4.40257 1.76228 6.99302C1.84907 10.1953 0.85905 11.4326 0.329866 11.8628C0.125537 12.029 0.00896511 12.2734 0.00878941 12.5299C0.00835018 13.0157 0.419996 13.4099 0.928009 13.4101L13.0799 13.4148C13.5877 13.415 13.9996 13.0215 14 12.5359L13.9999 12.5361Z" fill="#BEBEBE"/>
<path d="M0 12.5326V12.5322C0 12.2755 0.116396 12.031 0.320638 11.8646C0.84947 11.434 1.83791 10.1965 1.74787 6.99476C1.67513 4.40423 2.63994 2.88618 3.79635 1.99643C5.6369 0.580202 8.34993 0.580685 10.1911 1.99747C11.3478 2.88755 12.3133 4.406 12.2413 6.99637C12.1523 10.1987 13.1416 11.4365 13.6706 11.867C13.8748 12.0332 13.9912 12.2777 13.9912 12.5342C13.9912 13.0201 13.5795 13.414 13.0715 13.4139L0.919571 13.4119C0.411822 13.4118 0.000175692 13.0181 8.78459e-05 12.5325L0 12.5326Z" fill="#BEBEBE"/>
</g>
<defs>
<clipPath id="clip0_224_6153">
<rect width="14" height="16" fill="white"/>
</clipPath>
</defs>
</svg>
