<svg width="34" height="34" viewBox="0 0 34 34" fill="none" xmlns="http://www.w3.org/2000/svg">
<rect width="34" height="34" rx="17" fill="#FFC95D"/>
<path d="M21.4243 19.7458C20.8689 19.1975 20.1756 19.1975 19.6237 19.7458C19.2028 20.1632 18.7818 20.5806 18.3679 21.0051C18.2547 21.1219 18.1592 21.1466 18.0212 21.0688C17.7488 20.9202 17.4588 20.8 17.197 20.6372C15.9765 19.8696 14.9542 18.8826 14.0486 17.7718C13.5993 17.22 13.1996 16.6292 12.9201 15.9642C12.8635 15.8297 12.8741 15.7413 12.9838 15.6316C13.4047 15.2248 13.8151 14.8074 14.229 14.3899C14.8056 13.8098 14.8056 13.1306 14.2254 12.5469C13.8965 12.2144 13.5675 11.8889 13.2385 11.5564C12.8989 11.2168 12.5628 10.8736 12.2197 10.5376C11.6643 9.99633 10.9709 9.99633 10.4191 10.5411C9.99455 10.9585 9.58773 11.3866 9.15615 11.7969C8.75641 12.1755 8.55477 12.6389 8.51232 13.1801C8.44511 14.061 8.6609 14.8923 8.96512 15.7024C9.58773 17.3792 10.5358 18.8685 11.6855 20.234C13.2385 22.0806 15.0921 23.5416 17.2606 24.5957C18.237 25.0698 19.2487 25.4341 20.3489 25.4943C21.106 25.5367 21.7639 25.3457 22.291 24.7549C22.6519 24.3517 23.0587 23.9837 23.4407 23.5982C24.0067 23.0251 24.0103 22.3317 23.4478 21.7657C22.7757 21.09 22.1 20.4179 21.4243 19.7458Z" fill="white"/>
<path d="M20.7497 16.9264L22.0551 16.7035C21.8499 15.5043 21.2839 14.4183 20.4243 13.5551C19.5151 12.646 18.3654 12.0729 17.099 11.896L16.915 13.2084C17.8949 13.3464 18.7864 13.7886 19.4904 14.4925C20.1554 15.1576 20.5905 15.9995 20.7497 16.9264Z" fill="white"/>
<path d="M22.7865 11.2522C21.2795 9.74521 19.3728 8.79362 17.2679 8.5L17.084 9.81243C18.9023 10.0671 20.5508 10.8914 21.8526 12.1897C23.0872 13.4243 23.8973 14.9843 24.1909 16.7L25.4962 16.4771C25.1531 14.4891 24.2157 12.6849 22.7865 11.2522Z" fill="white"/>
</svg>
