<svg width="16" height="16" viewBox="0 0 16 16" fill="none" xmlns="http://www.w3.org/2000/svg">
<g clip-path="url(#clip0_224_6227)">
<path d="M15.776 0.223958C15.6319 0.0804947 15.4368 0 15.2334 0C15.03 0 14.8349 0.0804947 14.6908 0.223958L13.9414 0.973307L13.5413 0.573242C13.458 0.490112 13.3453 0.443522 13.2275 0.443522C13.1098 0.443522 12.9968 0.490112 12.9134 0.573242L0.656901 12.8293C0.573892 12.9128 0.527018 13.0259 0.527018 13.1437C0.527018 13.2615 0.573892 13.3745 0.656901 13.458L1.13151 13.9333L-0.00195312 15.0667V16H0.931315L2.06478 14.8667L2.54004 15.3413C2.62351 15.4245 2.73666 15.4712 2.85449 15.4712C2.97233 15.4712 3.08515 15.4245 3.16862 15.3413L12.8874 5.62272V6.67399L9.87207 9.7373L10.5062 10.3607L13.7728 7.03792V4.73796L15.4215 3.08936C15.5044 3.00571 15.5508 2.89279 15.5508 2.77507C15.5508 2.65734 15.5044 2.54425 15.4215 2.46061L15.0215 2.06071L15.7708 1.31136C15.9145 1.16728 15.9951 0.972158 15.9951 0.768717C15.9951 0.565277 15.9145 0.369994 15.7708 0.225911" fill="#FFC143"/>
</g>
<defs>
<clipPath id="clip0_224_6227">
<rect width="16" height="16" fill="white"/>
</clipPath>
</defs>
</svg>
