<svg width="34" height="34" viewBox="0 0 34 34" fill="none" xmlns="http://www.w3.org/2000/svg">
<circle cx="17" cy="17" r="16" fill="white" stroke="#FFC143" stroke-width="2"/>
<path d="M17 9C15.4178 9 13.871 9.46919 12.5554 10.3482C11.2398 11.2273 10.2145 12.4767 9.60897 13.9385C9.00347 15.4003 8.84504 17.0089 9.15372 18.5607C9.4624 20.1126 10.2243 21.538 11.3431 22.6568C12.462 23.7757 13.8874 24.5376 15.4393 24.8463C16.9911 25.155 18.5997 24.9965 20.0615 24.391C21.5233 23.7855 22.7727 22.7601 23.6518 21.4446C24.5308 20.129 25 18.5822 25 17C25 14.8783 24.1571 12.8434 22.6569 11.3431C21.1566 9.84285 19.1217 9 17 9ZM17.5333 20.072V20.6747C17.5333 20.8161 17.4771 20.9518 17.3771 21.0518C17.2771 21.1518 17.1414 21.208 17 21.208C16.8586 21.208 16.7229 21.1518 16.6229 21.0518C16.5229 20.9518 16.4667 20.8161 16.4667 20.6747V20.0773C16.2018 19.9986 15.9578 19.8621 15.7521 19.6777C15.5465 19.4932 15.3843 19.2654 15.2773 19.0107C15.2484 18.9306 15.239 18.8447 15.25 18.7602C15.2611 18.6758 15.2922 18.5952 15.3407 18.5252C15.3893 18.4552 15.4539 18.3979 15.5292 18.358C15.6044 18.3182 15.6882 18.2969 15.7733 18.296C15.8786 18.2931 15.9824 18.3214 16.0717 18.3774C16.1609 18.4334 16.2315 18.5146 16.2747 18.6107C16.3318 18.7562 16.4317 18.881 16.5612 18.9686C16.6907 19.0561 16.8437 19.1024 17 19.1013C17.1034 19.102 17.2059 19.0823 17.3017 19.0432C17.3974 19.0041 17.4845 18.9465 17.5578 18.8736C17.6312 18.8007 17.6894 18.7141 17.7291 18.6186C17.7689 18.5231 17.7893 18.4207 17.7893 18.3173C17.7922 18.2114 17.7739 18.1059 17.7357 18.0071C17.6974 17.9083 17.6399 17.818 17.5664 17.7416C17.493 17.6652 17.4051 17.6041 17.3079 17.562C17.2106 17.5198 17.106 17.4974 17 17.496C16.6835 17.4918 16.3731 17.4081 16.0974 17.2526C15.8217 17.097 15.5895 16.8747 15.4222 16.606C15.2549 16.3372 15.1579 16.0307 15.14 15.7147C15.1222 15.3987 15.1841 15.0832 15.32 14.7973C15.428 14.5623 15.5869 14.3542 15.7852 14.1882C15.9835 14.0221 16.2163 13.9023 16.4667 13.8373V13.224C16.4667 13.0826 16.5229 12.9469 16.6229 12.8469C16.7229 12.7469 16.8586 12.6907 17 12.6907C17.1414 12.6907 17.2771 12.7469 17.3771 12.8469C17.4771 12.9469 17.5333 13.0826 17.5333 13.224V13.8533C17.8238 13.9374 18.0892 14.0912 18.3067 14.3013C18.4882 14.4825 18.6315 14.6984 18.728 14.936C18.7508 15.0138 18.7555 15.0957 18.7418 15.1756C18.7282 15.2555 18.6965 15.3312 18.6492 15.397C18.6019 15.4628 18.5402 15.517 18.4689 15.5554C18.3975 15.5938 18.3183 15.6154 18.2373 15.6187C18.1323 15.6236 18.0282 15.5973 17.9381 15.5432C17.8479 15.4892 17.7758 15.4096 17.7307 15.3147C17.6871 15.2199 17.6275 15.1333 17.5547 15.0587C17.4119 14.9181 17.2216 14.8363 17.0213 14.8293C16.8134 14.8321 16.6147 14.9163 16.4682 15.0639C16.3216 15.2115 16.2387 15.4107 16.2373 15.6187C16.2381 15.8244 16.3166 16.0222 16.457 16.1725C16.5975 16.3228 16.7895 16.4145 16.9947 16.4293C17.4433 16.4394 17.8747 16.6041 18.2158 16.8957C18.5569 17.1873 18.7869 17.5877 18.8667 18.0293C18.9264 18.4731 18.8246 18.9236 18.5798 19.2986C18.335 19.6736 17.9636 19.9481 17.5333 20.072Z" fill="#323232"/>
</svg>
