<svg width="34" height="34" viewBox="0 0 34 34" fill="none" xmlns="http://www.w3.org/2000/svg">
<circle cx="17" cy="17" r="16.5" fill="white" stroke="#323232"/>
<path fill-rule="evenodd" clip-rule="evenodd" d="M13.2554 17.475L15.5338 19.5673C15.8661 19.8733 16.3805 19.857 16.6931 19.5347L20.7577 15.643C21.0884 15.3251 21.0984 14.7991 20.7803 14.4683C20.4623 14.1381 19.9366 14.1277 19.606 14.4456L16.0852 17.8166L14.3809 16.2516C14.0433 15.941 13.5173 15.9628 13.2064 16.3007C12.8957 16.6384 12.9176 17.1641 13.2554 17.475ZM17 9C21.4183 9 25 12.5817 25 17C25 21.4183 21.4183 25 17 25C12.5817 25 9 21.4183 9 17C9 12.5817 12.5817 9 17 9Z" fill="#323232"/>
</svg>
