<svg width="34" height="34" viewBox="0 0 34 34" fill="none" xmlns="http://www.w3.org/2000/svg">
<circle cx="17" cy="17" r="17" fill="#323232"/>
<circle cx="29" cy="5" r="5" fill="white"/>
<path fill-rule="evenodd" clip-rule="evenodd" d="M26.6596 5.29689L28.0836 6.60457C28.2913 6.79579 28.6128 6.78561 28.8082 6.58419L31.3486 4.15189C31.5552 3.9532 31.5615 3.62446 31.3627 3.41772C31.1639 3.21129 30.8354 3.20482 30.6288 3.40352L28.4283 5.51039L27.3631 4.53227C27.1521 4.33811 26.8233 4.35173 26.629 4.56297C26.4348 4.77399 26.4485 5.10255 26.6596 5.29689ZM29 0C31.7615 0 34 2.23853 34 5C34 7.76147 31.7615 10 29 10C26.2385 10 24 7.76147 24 5C24 2.23853 26.2385 0 29 0Z" fill="#FFC143"/>
<path fill-rule="evenodd" clip-rule="evenodd" d="M17.206 10.0037C15.9194 9.95836 14.6194 10.3298 13.4971 11.1225C12.2366 12.0137 11.3557 13.3298 10.9499 14.801C10.8379 14.7866 10.7037 14.7929 10.5444 14.8406C9.9495 15.0192 9.5021 15.535 9.30093 15.9892C9.04002 16.5811 8.92998 17.364 9.04605 18.1722C9.16132 18.9779 9.48299 19.642 9.88532 20.0543C10.2889 20.4668 10.7445 20.6009 11.1971 20.5002C11.8711 20.348 12.2052 20.2342 12.1108 19.5698L11.654 16.3496C11.7461 14.6067 12.5989 12.966 14.0252 11.9571C15.9342 10.6078 18.4372 10.6942 20.2582 12.1733C21.5249 13.201 22.2604 14.7408 22.3453 16.3572L22.0258 18.6099C21.3133 20.6731 19.5468 22.1022 17.5028 22.305H16.1416C15.7904 22.305 15.5076 22.6043 15.5076 22.9755V23.3293C15.5076 23.7007 15.7904 24 16.1416 24H17.8578C18.2089 24 18.4905 23.7007 18.4905 23.3293V23.1443C20.0318 22.7463 21.3772 21.7439 22.2533 20.3461L22.8031 20.5004C23.2505 20.6233 23.7116 20.4668 24.1149 20.0545C24.5173 19.642 24.8387 18.9781 24.9542 18.1724C25.0707 17.3642 24.9574 16.5826 24.6995 15.9894C24.4406 15.3962 24.055 15.0194 23.6098 14.8843C23.4233 14.8274 23.221 14.8066 23.0473 14.801C22.6804 13.4707 21.925 12.2608 20.8363 11.3775C19.7659 10.5084 18.4927 10.0484 17.206 10.0037Z" fill="white"/>
<path fill-rule="evenodd" clip-rule="evenodd" d="M19.0343 16.1244C19.4509 16.1244 19.7886 16.4496 19.7895 16.8518C19.7886 17.253 19.4509 17.5791 19.0343 17.5791C18.6166 17.5791 18.2779 17.253 18.2779 16.8518C18.2779 16.4497 18.6167 16.1244 19.0343 16.1244ZM17.0002 16.1244C17.4177 16.1244 17.7554 16.4496 17.7554 16.8518C17.7554 17.253 17.4177 17.5791 17.0002 17.5791C16.5823 17.5791 16.2446 17.253 16.2446 16.8518C16.2446 16.4497 16.5823 16.1244 17.0002 16.1244ZM14.9668 16.1244C15.3834 16.1244 15.7221 16.4496 15.7221 16.8518C15.7221 17.253 15.3834 17.5791 14.9668 17.5791C14.5493 17.5791 14.2114 17.253 14.2114 16.8518C14.2114 16.4497 14.5493 16.1244 14.9668 16.1244ZM17.0002 13C14.785 13 13 14.6623 13 16.8518C13 17.9034 13.4129 18.8328 14.0856 19.5147L13.8469 20.5451C13.7682 20.8842 14.0124 21.1122 14.3289 20.9425L15.3738 20.3812C15.8704 20.5889 16.4197 20.7036 17.0002 20.7036C19.2161 20.7036 21 19.0423 21 16.8518C21 14.6623 19.2161 13 17.0002 13Z" fill="white"/>
</svg>
